<svg xmlns="http://www.w3.org/2000/svg" xmlns:xlink="http://www.w3.org/1999/xlink" id="Layer_1" width="164" height="112" x="0" y="0" enable-background="new 18 44 164 112" version="1.1" viewBox="18 44 164 112" xml:space="preserve"><polygon fill="#FF4081" points="126 128 126 72 126 44 98 72 98 128 126 156 154 156 154 128"/><polygon fill="#FFF" points="126 44 126 72 98 72" enable-background="new" opacity=".2"/><polygon fill="#FFF" points="98 100 98 72 126 72" enable-background="new" opacity=".1"/><polygon points="126 128 126 100 98 100" enable-background="new" opacity=".1"/><polygon points="126 128 98 128 98 100" enable-background="new" opacity=".2"/><polygon points="126 128 154 128 154 156" enable-background="new" opacity=".5"/><polygon points="126 128 126 156 154 156" enable-background="new" opacity=".4"/><polygon points="126 156 126 128 98 128" enable-background="new" opacity=".3"/><polygon fill="#949ED5" points="154 44 126 44 126 72 154 72 154 128 154 156 182 128 182 72"/><polygon points="126 44 154 44 154 72" enable-background="new" opacity=".4"/><polygon points="126 44 126 72 154 72" enable-background="new" opacity=".5"/><polygon points="182 100 182 72 154 72" enable-background="new" opacity=".2"/><polygon points="182 100 154 100 154 72" enable-background="new" opacity=".1"/><polygon fill="#FFF" points="154 128 182 128 182 100" enable-background="new" opacity=".1"/><polygon points="154 44 154 72 182 72" enable-background="new" opacity=".3"/><polygon fill="#FFF" points="154 156 154 128 182 128" enable-background="new" opacity=".2"/><polygon fill="#2962FF" points="46 44 18 72 46 72 46 156 74 156 74 44"/><circle cx="88" cy="148" r="8" fill="#324191"/><polygon fill="#FFF" points="46 72 46 44 74 44" enable-background="new" opacity=".2"/><polygon fill="#FFF" points="46 72 74 72 74 44" enable-background="new" opacity=".1"/><polygon fill-opacity="0" points="46 72 74 72 74 100"/><polygon points="46 72 46 100 74 100" enable-background="new" opacity=".1"/><polygon points="46 128 74 128 74 100" enable-background="new" opacity=".3"/><polygon points="46 128 46 100 74 100" enable-background="new" opacity=".2"/><polygon points="46 128 74 128 74 156" enable-background="new" opacity=".4"/><polygon points="46 128 46 156 74 156" enable-background="new" opacity=".5"/><polygon fill="#FFF" points="46 44 46 72 18 72" enable-background="new" opacity=".3"/></svg>