<svg xmlns="http://www.w3.org/2000/svg" xmlns:xlink="http://www.w3.org/1999/xlink" id="Toolkitchen_2_" width="612" height="498" x="0" y="0" enable-background="new 0 0 612 498" version="1.1" viewBox="0 0 612 498" xml:space="preserve"><style type="text/css">#Toolkitchen_2_{height:auto;width:100%}.st0{opacity:.1}.st0,.st1{fill:#0da861;stroke:#03774b;stroke-miterlimit:10}.st2{opacity:.4;fill:#e0e0e0}.st3{opacity:.2;fill:#f44a3f}.st4{fill:#e0e0e0;stroke:#999;stroke-miterlimit:10}.st5{fill:#2364d7}.st6{fill:#f4b400}.st7{fill:#f44a3f;stroke:#cd372d;stroke-miterlimit:10}.st8,.st9{fill:#ffd14d}.st8{opacity:.2}.st9{stroke:#f4b400;stroke-miterlimit:10}.st10{fill:#999}.st11{fill:#603813}.st12{fill:#cd372d}.st13{opacity:.1}.st13,.st14,.st15{fill:#4387fd;stroke:#2364d7;stroke-miterlimit:10}.st15{fill:#cd372d;stroke:#cd372d}.st16{font-family:&apos;ArialMT&apos;}.st17{fill:#03774b}.st18{opacity:.1;fill:#603813}.st19,.st20{opacity:.2;fill:#0da861}.st20{fill:#4387fd}.st21{font-size:13.3543}</style><polygon id="Native_Bedrock_1_" points="489.672 407.446 489.672 422.446 437.173 422.446 437.173 437.469 384.672 437.469 384.672 452.494 332.173 452.494 332.173 467.517 279.672 467.517 279.672 437.469 227.172 437.469 227.172 407.422 174.672 407.422 174.672 481.707 565.285 481.707 565.285 422.446 541.751 422.446 541.752 407.446" class="st4"/><g id="Kernel"><rect width="285.139" height="31.717" x="174.672" y="255.517" class="st9"/><text class="st16 st21" transform="matrix(1.028 0 0 1 291.5063 275.5488)">polymer.js</text></g><g id="Applications"><g><rect width="75.119" height="60.095" x="279.837" y="59.376" class="st13"/><rect width="45.071" height="45.071" x="174.672" y="44.353" class="st14"/><rect width="60.094" height="75.119" x="219.743" y="14.305" class="st13"/><rect width="30.381" height="30.047" x="354.956" y="89.424" class="st13"/><rect width="29.713" height="80.291" x="385.337" y="59.376" class="st13"/><rect width="45.38" height="45.071" x="459.812" y="164.542" class="st13"/><rect width="44.762" height="105.166" x="415.05" y="104.447" class="st13"/><rect width="15.024" height="15.024" x="505.191" y="194.589" class="st13"/><rect width="15.022" height="15.023" x="520.216" y="149.518" class="st13"/><rect width="30.047" height="30.047" x="535.238" y="134.494" class="st13"/></g><text class="st16 st21" transform="matrix(1 0 0 1 183.3838 72.7305)">Pica</text></g><g id="Components"><g><rect width="60.5" height="75.118" x="324.908" y="119.471" class="st0"/><rect width="29.642" height="54.922" x="385.408" y="139.667" class="st0"/><rect width="240.236" height="60.928" x="174.672" y="194.589" class="st1"/><rect width="150.236" height="105.165" x="174.672" y="89.424" class="st1"/><rect width="45.069" height="122.692" x="520.216" y="164.542" class="st0"/><rect width="44.762" height="45.07" x="415.05" y="209.613" class="st0"/><rect width="60.404" height="77.621" x="459.812" y="209.613" class="st0"/></g><text transform="matrix(1 0 0 1 273.3018 221.8877)"><tspan x="0" y="0" class="st16 st21">Polymer</tspan><tspan x="-3.345" y="16.025" class="st16 st21">Elements</tspan></text><text transform="matrix(1 0 0 1 216.7705 140.8965)"><tspan x="0" y="0" class="st16 st21">Polymer UI</tspan><tspan x="5.187" y="16.025" class="st16 st21">Elements</tspan></text></g><g id="Foundation"><g><rect width="52.501" height="165.259" x="279.672" y="302.258" class="st7"/><rect width="52.499" height="150.236" x="332.173" y="302.258" class="st7"/><rect width="52.501" height="135.211" x="384.672" y="302.258" class="st7"/><rect width="52.499" height="120.188" x="437.173" y="302.258" class="st7"/><rect width="52.5" height="135.211" x="227.172" y="302.258" class="st7"/><rect width="52.5" height="105.188" x="489.672" y="302.258" class="st7"/><rect width="52.5" height="120.188" x="541.751" y="302.258" class="st7"/><rect width="52.5" height="105.164" x="174.672" y="302.258" class="st7"/></g><g><text class="st16 st21" transform="matrix(0 -1 1 0 466.9844 416.6318)">TemplateBinding</text><text transform="matrix(0 -1 1 0 196.4717 382.3037)"><tspan x="0" y="0" class="st16 st21">Mutation </tspan><tspan x="-3.332" y="16.025" class="st16 st21">Observers</tspan></text><text class="st16 st21" transform="matrix(0 -1 1 0 571.5625 409.2998)">Web Animations</text><text class="st16 st21" transform="matrix(0 -1 1 0 519.4844 395.5732)">Node.bind()</text><text class="st16 st21" transform="matrix(0 -1 1 0 256.9839 413.291)">Pointer Events</text><text class="st16 st21" transform="matrix(0 -1 1 0 309.4844 418.9375)">Shadow DOM</text><text class="st16 st21" transform="matrix(0 -1 1 0 414.4844 412.1592)">HTML Imports</text><text class="st16 st21" transform="matrix(0 -1 1 0 361.9844 430.0684)">Custom Elements</text></g><rect width="419.579" height="17.267" x="174.672" y="287.233" class="st15"/><text class="st16 st21" transform="matrix(1.0833 0 0 1 351.2207 300.3359)">platform.js</text></g><g id="Legend"><g id="Native"><rect width="107.946" height="74.285" x="66.726" y="407.422" class="st2"/><rect id="Extra_Block_1_" width="42.846" height="74.285" x="23.88" y="407.422" class="st2"/><text class="st10 st16 st21" transform="matrix(1 0 0 1 99.9346 449.9902)">Native</text></g><g id="Foundation_1_"><rect width="107.946" height="120.188" x="66.726" y="287.233" class="st3"/><text class="st12 st16 st21" transform="matrix(1 0 0 1 85.4487 354.8389)">Foundation</text></g><g id="Kernel_1_"><rect width="107.946" height="31.717" x="66.726" y="255.517" class="st8"/><text class="st6 st16 st21" transform="matrix(1 0 0 1 101.5591 275.5479)">Core</text></g><g id="Components_1_"><rect width="107.946" height="166.093" x="66.726" y="89.424" class="st19"/><text class="st17 st16 st21" transform="matrix(1 0 0 1 92.0015 179.5645)">Elements</text></g><g id="Applications_1_"><rect width="107.946" height="45.071" x="66.726" y="44.353" class="st20"/><rect id="Extra_Block" width="42.846" height="45.071" x="23.88" y="44.353" class="st20"/><text class="st5 st16 st21" transform="matrix(1 0 0 1 82.8662 72.7295)">Applications</text></g><g id="Toolkitchen"><rect width="42.846" height="317.998" x="23.88" y="89.424" class="st18"/><text class="st11 st16 st21" transform="matrix(0 -1 1 0 48.6147 283.2334)">Polymer</text></g></g></svg>